<?xml version="1.0" encoding="UTF-8" standalone="no"?>
<!-- Created with Inkscape (http://www.inkscape.org/) -->

<svg
   xmlns:dc="http://purl.org/dc/elements/1.1/"
   xmlns:cc="http://creativecommons.org/ns#"
   xmlns:rdf="http://www.w3.org/1999/02/22-rdf-syntax-ns#"
   xmlns:svg="http://www.w3.org/2000/svg"
   xmlns="http://www.w3.org/2000/svg"
   xmlns:sodipodi="http://sodipodi.sourceforge.net/DTD/sodipodi-0.dtd"
   xmlns:inkscape="http://www.inkscape.org/namespaces/inkscape"
   width="193.65086"
   height="58.949894"
   viewBox="0 0 51.236791 15.59716"
   version="1.1"
   id="svg8"
   inkscape:version="0.92.4 (5da689c313, 2019-01-14)"
   sodipodi:docname="drawing2.svg">
  <defs
     id="defs2" />
  <sodipodi:namedview
     id="base"
     pagecolor="#ffffff"
     bordercolor="#666666"
     borderopacity="1.0"
     inkscape:pageopacity="0.0"
     inkscape:pageshadow="2"
     inkscape:zoom="2.6365627"
     inkscape:cx="65.997182"
     inkscape:cy="-66.29289"
     inkscape:document-units="px"
     inkscape:current-layer="layer0
"
     showgrid="false"
     inkscape:window-width="1920"
     inkscape:window-height="1017"
     inkscape:window-x="-8"
     inkscape:window-y="-8"
     inkscape:window-maximized="1"
     units="px"
     fit-margin-top="0"
     fit-margin-left="0"
     fit-margin-right="0"
     fit-margin-bottom="0"
     inkscape:showpageshadow="true"
     showborder="true" />
  <metadata
     id="metadata5">
    <rdf:RDF>
      <cc:Work
         rdf:about="">
        <dc:format>image/svg+xml</dc:format>
        <dc:type
           rdf:resource="http://purl.org/dc/dcmitype/StillImage" />
        <dc:title></dc:title>
      </cc:Work>
    </rdf:RDF>
  </metadata>
  <g
     id="layer0
"
     inkscape:groupmode="layer"
     inkscape:label="Layer 0"
     transform="translate(-56.845719,-107.66805)">
    <rect
       y="107.91404"
       x="57.091709"
       height="15.105179"
       width="50.744812"
       id="rect850"
       style="opacity:0;fill:#dddddd;fill-opacity:0;stroke:#5c5c5c;stroke-width:0.49198055;stroke-miterlimit:100;stroke-dasharray:none;stroke-opacity:0" />
  </g>
  <g
     inkscape:label="Layer 1"
     inkscape:groupmode="layer"
     id="layer1"
     transform="translate(-56.845719,-107.66805)">
    <g
       id="surface1"
       transform="matrix(0.35277777,0,0,0.35277777,59.092775,108.87453)">
      <path
         id="path815"
         d="M 43.457031,26.050781 V 23.695312 H 35.699219 V 11.050781 h -2.757813 v 15 z m 6.59375,0.144531 c 1.160157,0 2.199219,-0.242187 3.121094,-0.75 0.914063,-0.496093 1.628906,-1.195312 2.148437,-2.082031 0.515626,-0.898437 0.773438,-1.90625 0.773438,-3.035156 0,-1.128906 -0.257812,-2.132813 -0.773438,-3.023437 -0.519531,-0.882813 -1.234374,-1.574219 -2.148437,-2.070313 -0.921875,-0.503906 -1.960937,-0.75 -3.121094,-0.75 -1.144531,0 -2.179687,0.246094 -3.09375,0.75 -0.921875,0.496094 -1.636719,1.1875 -2.152343,2.070313 -0.519532,0.890624 -0.777344,1.894531 -0.777344,3.023437 0,1.128906 0.257812,2.136719 0.777344,3.035156 0.515624,0.886719 1.230468,1.585938 2.152343,2.082031 0.914063,0.507813 1.949219,0.75 3.09375,0.75 z m 0,-2.289062 c -0.972656,0 -1.777343,-0.324219 -2.40625,-0.984375 -0.628906,-0.65625 -0.945312,-1.519531 -0.945312,-2.59375 0,-1.070313 0.316406,-1.933594 0.945312,-2.589844 0.628907,-0.660156 1.433594,-0.984375 2.40625,-0.984375 0.976563,0 1.78125,0.324219 2.417969,0.984375 0.636719,0.65625 0.957031,1.519531 0.957031,2.589844 0,1.074219 -0.320312,1.9375 -0.957031,2.59375 -0.636719,0.660156 -1.441406,0.984375 -2.417969,0.984375 z m 11.53125,2.289062 c 0.847657,0 1.578125,-0.132812 2.171875,-0.390624 0.605469,-0.265626 1.066406,-0.648438 1.394532,-1.148438 v 1.394531 h 2.503906 V 19.34375 c 0,-1.625 -0.445313,-2.847656 -1.324219,-3.652344 -0.890625,-0.808594 -2.160156,-1.207031 -3.832031,-1.207031 -0.933594,0 -1.816406,0.117187 -2.652344,0.359375 -0.832031,0.242188 -1.550781,0.59375 -2.136719,1.054688 l 1.039063,1.945312 c 0.421875,-0.359375 0.941406,-0.636719 1.558594,-0.835938 0.613281,-0.199218 1.238281,-0.300781 1.875,-0.300781 0.933593,0 1.636718,0.214844 2.105468,0.644531 C 64.761719,17.777344 65,18.394531 65,19.191406 v 0.171875 h -2.929688 c -1.621093,0 -2.816406,0.3125 -3.570312,0.9375 -0.753906,0.617188 -1.132812,1.441407 -1.132812,2.46875 0,0.660157 0.171874,1.25 0.515624,1.769531 0.347657,0.523438 0.835938,0.929688 1.472657,1.21875 0.636719,0.292969 1.378906,0.4375 2.226562,0.4375 z M 62.136719,24.25 c -0.679688,0 -1.210938,-0.144531 -1.589844,-0.429688 -0.382813,-0.285156 -0.574219,-0.671874 -0.574219,-1.15625 0,-1.015624 0.761719,-1.519531 2.292969,-1.519531 H 65 v 1.328125 c -0.210938,0.570313 -0.574219,1.007813 -1.09375,1.3125 C 63.390625,24.097656 62.800781,24.25 62.136719,24.25 Z m 13.480469,1.945312 c 0.78125,0 1.492187,-0.132812 2.132812,-0.402343 0.644531,-0.273438 1.1875,-0.679688 1.625,-1.222657 v 1.480469 h 2.542969 V 10.152344 h -2.648438 v 5.871094 c -0.4375,-0.515626 -0.96875,-0.902344 -1.589843,-1.15625 -0.625,-0.257813 -1.3125,-0.382813 -2.0625,-0.382813 -1.085938,0 -2.066407,0.238281 -2.9375,0.722656 -0.867188,0.484375 -1.550782,1.175781 -2.046876,2.058594 -0.488281,0.882813 -0.742187,1.90625 -0.742187,3.0625 0,1.160156 0.253906,2.183594 0.742187,3.074219 0.496094,0.894531 1.179688,1.585937 2.046876,2.070312 0.871093,0.484375 1.851562,0.722656 2.9375,0.722656 z m 0.316406,-2.289062 c -0.632813,0 -1.203125,-0.144531 -1.714844,-0.4375 -0.511719,-0.292969 -0.90625,-0.710938 -1.207031,-1.257812 -0.296875,-0.535157 -0.441407,-1.167969 -0.441407,-1.882813 0,-0.710937 0.144532,-1.34375 0.441407,-1.886719 0.300781,-0.539062 0.695312,-0.957031 1.207031,-1.25 0.511719,-0.292968 1.082031,-0.4375 1.714844,-0.4375 0.636718,0 1.214844,0.144532 1.722656,0.4375 0.503906,0.292969 0.910156,0.710938 1.207031,1.25 0.300781,0.542969 0.445313,1.175782 0.445313,1.886719 0,0.714844 -0.144532,1.347656 -0.445313,1.882813 -0.296875,0.546874 -0.703125,0.964843 -1.207031,1.257812 -0.507812,0.292969 -1.085938,0.4375 -1.722656,0.4375 z m 16.261718,2.359375 c 1.222657,0 2.335938,-0.214844 3.347657,-0.644531 1.007812,-0.425782 1.863281,-1.050782 2.550781,-1.859375 L 96.3125,22.039062 c -1.074219,1.191407 -2.394531,1.78125 -3.964844,1.78125 -1.019531,0 -1.925781,-0.226562 -2.734375,-0.671874 -0.808593,-0.449219 -1.4375,-1.074219 -1.890625,-1.878907 -0.449218,-0.796875 -0.675781,-1.707031 -0.675781,-2.714843 0,-1.015626 0.226563,-1.925782 0.675781,-2.722657 0.453125,-0.804687 1.082032,-1.429687 1.890625,-1.875 0.808594,-0.449219 1.714844,-0.675781 2.734375,-0.675781 1.570313,0 2.890625,0.585938 3.964844,1.753906 l 1.78125,-1.6875 c -0.6875,-0.816406 -1.535156,-1.441406 -2.542969,-1.867187 -1,-0.429688 -2.113281,-0.644531 -3.328125,-0.644531 -1.503906,0 -2.855468,0.332031 -4.0625,0.996093 -1.210937,0.664063 -2.160156,1.582031 -2.855468,2.757813 -0.6875,1.167968 -1.039063,2.488281 -1.039063,3.964844 0,1.46875 0.34375,2.789062 1.03125,3.957031 0.683594,1.175781 1.632813,2.089843 2.84375,2.753906 1.207031,0.664063 2.558594,1 4.054687,1 z m 12.640628,-0.07031 c 1.15625,0 2.19922,-0.242187 3.12109,-0.75 0.91406,-0.496093 1.63672,-1.195312 2.15235,-2.082031 0.50781,-0.898437 0.76953,-1.90625 0.76953,-3.035156 0,-1.128906 -0.26172,-2.132813 -0.76953,-3.023437 -0.51563,-0.882813 -1.23829,-1.574219 -2.15235,-2.070313 -0.92187,-0.503906 -1.96484,-0.75 -3.12109,-0.75 -1.14844,0 -2.17578,0.246094 -3.09766,0.75 -0.92187,0.496094 -1.63672,1.1875 -2.152342,2.070313 -0.515626,0.890624 -0.777344,1.894531 -0.777344,3.023437 0,1.128906 0.261718,2.136719 0.777344,3.035156 0.515622,0.886719 1.230472,1.585938 2.152342,2.082031 0.92188,0.507813 1.94922,0.75 3.09766,0.75 z m 0,-2.289062 c -0.97656,0 -1.77735,-0.324219 -2.40625,-0.984375 -0.62891,-0.65625 -0.94141,-1.519531 -0.94141,-2.59375 0,-1.070313 0.3125,-1.933594 0.94141,-2.589844 0.6289,-0.660156 1.42969,-0.984375 2.40625,-0.984375 0.97265,0 1.78125,0.324219 2.41797,0.984375 0.63672,0.65625 0.95312,1.519531 0.95312,2.589844 0,1.074219 -0.3164,1.9375 -0.95312,2.59375 -0.63672,0.660156 -1.44532,0.984375 -2.41797,0.984375 z m 10.91797,2.144531 V 20.5 c 0,-1.140625 0.29297,-2.019531 0.86718,-2.625 0.57813,-0.601562 1.38672,-0.90625 2.42188,-0.90625 0.18359,0 0.39062,0.01953 0.61328,0.0625 v -2.546875 c -1.92578,0 -3.26562,0.597656 -4.02734,1.796875 v -1.671875 h -2.52344 v 11.441406 z m 11.04687,0.144531 c 0.97656,0 1.84766,-0.152343 2.625,-0.46875 0.78125,-0.3125 1.42578,-0.777343 1.93359,-1.390624 l -1.42187,-1.652344 c -0.80469,0.832031 -1.83203,1.242187 -3.07812,1.242187 -0.97266,0 -1.78907,-0.246093 -2.44922,-0.738281 -0.65625,-0.488281 -1.0625,-1.160156 -1.21875,-2.003906 h 8.88671 c 0.0312,-0.339844 0.043,-0.605469 0.043,-0.789063 0,-1.167969 -0.24218,-2.207031 -0.73437,-3.097656 -0.48438,-0.894531 -1.16406,-1.585937 -2.03516,-2.078125 -0.86719,-0.488281 -1.85547,-0.734375 -2.95312,-0.734375 -1.1211,0 -2.1211,0.246094 -3.01563,0.75 -0.89062,0.496094 -1.58593,1.195313 -2.08984,2.085937 -0.5,0.894532 -0.75391,1.898438 -0.75391,3.007813 0,1.128906 0.25782,2.136719 0.77735,3.035156 0.51562,0.886719 1.24218,1.585938 2.1914,2.082031 0.94922,0.507813 2.04688,0.75 3.29297,0.75 z m 2.79688,-6.785156 h -6.42578 c 0.125,-0.84375 0.48046,-1.519531 1.07031,-2.023437 0.58594,-0.511719 1.30859,-0.765625 2.15625,-0.765625 0.85937,0 1.58203,0.257812 2.16015,0.769531 0.58203,0.519531 0.92578,1.191406 1.03907,2.019531 z m 0,0"
         style="fill:#ffffff;fill-opacity:1;fill-rule:nonzero;stroke:none"
         inkscape:connector-curvature="0" />
      <path
         id="path817"
         d="m 34.605469,7.515625 c 0.835937,0 1.488281,-0.210937 1.96875,-0.640625 0.476562,-0.433594 0.714843,-1.023438 0.714843,-1.78125 0,-0.664062 -0.21875,-1.1875 -0.65625,-1.566406 -0.4375,-0.386719 -1.035156,-0.574219 -1.796874,-0.574219 -0.378907,0 -0.753907,0.035156 -1.132813,0.113281 l 0.179687,-2.195312 h 2.894532 V 0.105469 h -3.597656 l -0.273438,3.421875 0.425781,0.277344 c 0.523438,-0.097657 0.949219,-0.144532 1.257813,-0.144532 1.242187,0 1.855468,0.511719 1.855468,1.527344 0,0.523438 -0.15625,0.921875 -0.480468,1.199219 -0.320313,0.28125 -0.769532,0.417969 -1.355469,0.417969 -0.328125,0 -0.667969,-0.042969 -1.011719,-0.132813 C 33.253906,6.59375 32.96875,6.476562 32.734375,6.320312 V 7.125 c 0.433594,0.265625 1.054687,0.390625 1.871094,0.390625 z m 7.367187,0 c 0.519532,0 0.980469,-0.023437 1.371094,-0.089844 0.398438,-0.0625 0.789062,-0.160156 1.175781,-0.28125 V 3.585938 h -2.464843 v 0.765624 h 1.621093 v 2.25 c -0.476562,0.113282 -0.96875,0.171876 -1.46875,0.171876 -0.929687,0 -1.625,-0.253907 -2.101562,-0.765626 C 39.628906,5.5 39.390625,4.75 39.390625,3.765625 c 0,-0.945313 0.242187,-1.679687 0.742187,-2.210937 0.488282,-0.53125 1.179688,-0.789063 2.058594,-0.789063 0.609375,0 1.234375,0.136719 1.890625,0.417969 L 44.40625,0.429688 C 43.742188,0.144531 43.019531,0 42.25,0 c -0.765625,0 -1.429688,0.152344 -2,0.453125 -0.5625,0.304687 -1,0.734375 -1.304688,1.3125 -0.296874,0.570313 -0.449218,1.234375 -0.449218,2 0,1.179687 0.304687,2.105469 0.914062,2.769531 0.609375,0.65625 1.464844,0.980469 2.5625,0.980469 z m 0,0"
         style="fill:#ffffff;fill-opacity:1;fill-rule:nonzero;stroke:none"
         inkscape:connector-curvature="0" />
      <path
         id="path819"
         transform="matrix(0.46105,0,0,0.465754,-0.922101,4.657534)"
         d="M 30.001624,-0.00275725 55.986792,14.993085 V 45.00993 L 30.001624,60.005772 4.016456,45.00993 V 14.993085 Z m 0,0"
         style="fill:#35b0c7;fill-opacity:1;fill-rule:evenodd;stroke:#68c2d7;stroke-width:4;stroke-linecap:butt;stroke-linejoin:miter;stroke-miterlimit:4;stroke-opacity:1"
         inkscape:connector-curvature="0" />
      <path
         id="path821"
         d="M 12.121094,22.199219 V 20.84375 H 8.5625 V 15.027344 H 6.917969 v 7.171875 z m 4.320312,0.125 c 1.238282,0 2.257813,-0.449219 2.929688,-1.28125 L 18.316406,20.0625 c -0.476562,0.554688 -1.074218,0.847656 -1.78125,0.847656 -1.332031,0 -2.273437,-0.941406 -2.273437,-2.296875 0,-1.355469 0.941406,-2.296875 2.273437,-2.296875 0.707032,0 1.304688,0.292969 1.78125,0.84375 l 1.054688,-0.984375 c -0.671875,-0.824219 -1.691406,-1.273437 -2.921875,-1.273437 -2.207031,0 -3.851563,1.546875 -3.851563,3.710937 0,2.164063 1.644532,3.710938 3.84375,3.710938 z m 0,0"
         style="fill:#ffffff;fill-opacity:1;fill-rule:nonzero;stroke:none"
         inkscape:connector-curvature="0" />
    </g>
  </g>
</svg>
